{"title":"Everyday Blackman 2011 DVDRip Xvid LKRG","uid":6161126,"size":746703492,"categoryP":"video","categoryS":"movies","magnet":"?xt=urn:btih:ae1c827dc21cbf77a490362e333c0d9b35d5a449&amp;dn=Everyday+Blackman+2011+DVDRip+Xvid+LKRG&amp;tr=udp%3A%2F%2Ftracker.openbittorrent.com%3A80&amp;tr=udp%3A%2F%2Fopen.demonii.com%3A1337&amp;tr=udp%3A%2F%2Ftracker.coppersurfer.tk%3A6969&amp;tr=udp%3A%2F%2Fexodus.desync.com%3A6969","seeders":1,"leechers":1,"uploader":".BONE.","files":3,"time":1297215838,"description":"Format;AVI\n\nFile Size:1.06gb\n\nVideo:ID : 0\nFormat : MPEG-4 Visual\nFormat profile : Advanced Simple@L5\nFormat settings, BVOP : Yes\nFormat settings, QPel : No\nFormat settings, GMC : No warppoints\nFormat settings, Matrix : Custom\nCodec ID : XVID\nCodec ID/Hint : XviD\nDuration : 1h 39mn\nBit rate : 765 Kbps\nWidth : 720 pixels\nHeight : 304 pixels\nDisplay aspect ratio : 2.35:1\nFrame rate : 29.970 fps\nColor space : YUV\nChroma subsampling : 4:2:0\nBit depth : 8 bits\nScan type : Progressive\nBits/(Pixel*Frame) : 0.117\nStream size : 544 MiB (76%)\nWriting library : XviD 1.2.1 (UTC 2008-12-04)\n\nAudio:ID : 1\nFormat : AC-3\nFormat/Info : Audio Coding 3\nMode extension : CM (complete main)\nCodec ID : 2000\nDuration : 1h 39mn\nBit rate mode : Constant\nBit rate : 224 Kbps\nChannel(s) : 2 channels\nChannel positions : Front: L R\nSampling rate : 48.0 KHz\nBit depth : 16 bits\nStream size : 159 MiB (22%)\nAlignment : Aligned on interleaves\nInterleave, duration : 33 ms (1.00 video frame)\nInterleave, preload duration : 512 ms\n\nDuration:1:39\n\nRelease Date:2011\n\nLanguage:English\n &lt;a href=&quot;\nhttp://www.imdb.com/title/tt1289397/&quot; rel=&quot;nofollow&quot; target=&quot;_NEW&quot;&gt;\nhttp://www.imdb.com/title/tt1289397/&lt;/a&gt;\n\nSince closing the door to a violent past, quiet and thoughtful Moses Stanton everyday existence is running a small neighborhood store, and watching over his daughter who doesn't know he exists. When a young man, Malik, comes in claiming to be a black Muslim that is doing good for the neighborhood, Moses takes him on as a partner but soon realizes that Malik is nothing but a drug dealer seeking to destroy the neighborhood and Moses's daughter. Therefore, Moses must become the man he used to be in order to save his beloved neighborhood and his daughter.\n &lt;a href=&quot;\nhttp://www.grinshare.com/img/T63JJ7.png&quot; rel=&quot;nofollow&quot; target=&quot;_NEW&quot;&gt;\nhttp://www.grinshare.com/img/T63JJ7.png&lt;/a&gt;\n &lt;a href=&quot;\nhttp://www.grinshare.com/img/F3AONQ.png&quot; rel=&quot;nofollow&quot; target=&quot;_NEW&quot;&gt;\nhttp://www.grinshare.com/img/F3AONQ.png&lt;/a&gt;\n &lt;a href=&quot;\nhttp://www.grinshare.com/img/JV5IFJ.png&quot; rel=&quot;nofollow&quot; target=&quot;_NEW&quot;&gt;\nhttp://www.grinshare.com/img/JV5IFJ.png&lt;/a&gt;\n &lt;a href=&quot;\nhttp://www.grinshare.com/img/64IWU0.png&quot; rel=&quot;nofollow&quot; target=&quot;_NEW&quot;&gt;\nhttp://www.grinshare.com/img/64IWU0.png&lt;/a&gt;\n &lt;a href=&quot;\nhttp://www.grinshare.com/img/UQRTQ4.png&quot; rel=&quot;nofollow&quot; target=&quot;_NEW&quot;&gt;\nhttp://www.grinshare.com/img/UQRTQ4.png&lt;/a&gt;\n &lt;a href=&quot;\nhttp://www.grinshare.com/img/RWFAYJ.png&quot; rel=&quot;nofollow&quot; target=&quot;_NEW&quot;&gt;\nhttp://www.grinshare.com/img/RWFAYJ.png&lt;/a&gt;","torrent":{"xt":"urn:btih:ae1c827dc21cbf77a490362e333c0d9b35d5a449","amp;dn":"Everyday+Blackman+2011+DVDRip+Xvid+LKRG","amp;tr":["udp%3A%2F%2Ftracker.openbittorrent.com%3A80","udp%3A%2F%2Fopen.demonii.com%3A1337","udp%3A%2F%2Ftracker.coppersurfer.tk%3A6969","udp%3A%2F%2Fexodus.desync.com%3A6969"],"infoHash":"ae1c827dc21cbf77a490362e333c0d9b35d5a449","infoHashBuffer":{"type":"Buffer","data":[174,28,130,125,194,28,191,119,164,144,54,46,51,60,13,155,53,213,164,73]},"announce":[],"urlList":[]}}